# xmcd
#
# Track frame offsets:
#	150
#	14421
#	30831
#	44181
#	59481
#	72311
#	84550
#	97311
#	113290
#	129280
#	144138
#	156729
#	172566
#	188160
#	201244
#	217495
#	233675
#	248383
#	262079
#	275357
#
# Disc length: 3872 seconds
#
# Revision: 0
# Processed by: cddbd v1.5.2PL0 Copyright (c) Steve Scherf et al.
# Submitted via: EasyCDDAExtractor 16.0.6.1
#
DISCID=1d0f1e14
DTITLE=Συλλογικός δίσκος - Τραγούδια 45 στροφές-Γαβαλάς Πάνος 4
DYEAR=2000
DGENRE=Λαϊκή
TTITLE0=Γαβαλάς Πάνος-Γκίκα Βούλα - Έλα, έλα [1962, μουσ., στ. Πάνος Γαβαλάς]
TTITLE1=Γαβαλάς Πάνος-Γκίκα Βούλα - Ψεύτικε κόσμε [1962, Γιώργος Κόρος-Π. Ιγγλ
TTITLE1=έσης]
TTITLE2=Γαβαλάς Πάνος-Κούρτη Ρία - Μετανάστης θα γραφτώ [1963, Π. Πετσάς-Κ. Ζή
TTITLE2=της]
TTITLE3=Γαβαλάς Πάνος-Κούρτη Ρία - Έχασα τον έρωτά μου [1962, μουσ., στ. Πάνος
TTITLE3=Γαβαλάς]
TTITLE4=Γαβαλάς Πάνος-Γκίκα Βούλα - Ποιος πέθανε και γύρισε [1962, Π. Πετσάς-Ν
TTITLE4=Χάρου]
TTITLE5=Γαβαλάς Πάνος - Μη με βασανίζεις [1962, Πάνος Γαβαλάς-Νίκος Δαλέζιος]
TTITLE6=Γαβαλάς Πάνος-Δούκισσα - Χαμένη αγάπη [1961,  [1962, μουσ., στ. Στέλιο
TTITLE6=ς Μακρυδάκης]
TTITLE7=Γαβαλάς Πάνος-Φινέτη Μπέμπα - Λιώνω-λιώνω [1962, μουσ., στ. Πάνος Γαβα
TTITLE7=λάς]
TTITLE8=Γαβαλάς Πάνος - Ορφανός [1962, Θεόδωρος Δερβενιώτης-Ε. Μυταριώτου]
TTITLE9=Γαβαλάς Πάνος - Μιά θλιμμένη μουσική [1962, μουσ., στ. Κώστας Βίρβος]
TTITLE10=Γαβαλάς Πάνος - Φελλάχα μου Αλγερινή [1962, Θεόδωρος Δερβενιώτης]
TTITLE11=Γαβαλάς Πάνος-Κούρτη Ρία - Αφού είναι λίγη η ζωή [1963, Πάνος Γαβαλάς
TTITLE11=Στέλιος Κορσαβίδης]
TTITLE12=Γαβαλάς Πάνος - Τι άλλο θέλεις [1962, Θεόδωρος Δερβενιώτης-Κώστας Βίρ
TTITLE12=βος]
TTITLE13=Γαβαλάς Πάνος-Κούρτη Ρία - Έχω μείνει μόνος στη ζωή [1963, Γ. Λαύκας]
TTITLE14=Γαβαλάς Πάνος-Κούρτη Ρία - Ξαγρυπνώ [1963, μουσ., στ. Πάνος Γαβαλάς]
TTITLE15=Γαβαλάς Πάνος - Δεν αντέχω άλλη μαχαιριά [1961, μουσ., στ. Πάνος Γαβα
TTITLE15=λάς]
TTITLE16=Γαβαλάς Πάνος-Γκίκα Βούλα - Κι άλλο καράβι φεύγει μακρυά [1962, μουσ.
TTITLE16=, στ. Πάνος Γαβαλάς]
TTITLE17=Γαβαλάς Πάνος-Γκίκα Βούλα - Για μένα είσαι θησαυρός [1961, μουσ., στ.
TTITLE17=Πάνος Γαβαλάς]
TTITLE18=Γαβαλάς Πάνος-Κούρτη Ρία - Το ξέρω [1964, μουσ., στ. Στράτος Ατταλίδη
TTITLE18=ς]
TTITLE19=Γαβαλάς Πάνος-Κούρτη Ρία - Στο έρημο λιμάνι [1963, Μίκης Θεοδωράκης-Χ
TTITLE19=ρ. Κολοκοτρώνης]
EXTD=
EXTT0=
EXTT1=
EXTT2=
EXTT3=
EXTT4=
EXTT5=
EXTT6=
EXTT7=
EXTT8=
EXTT9=
EXTT10=
EXTT11=
EXTT12=
EXTT13=
EXTT14=
EXTT15=
EXTT16=
EXTT17=
EXTT18=
EXTT19=
PLAYORDER=
